<?xml version="1.0" encoding="utf-8"?>
<!-- Generator: Adobe Illustrator 19.1.0, SVG Export Plug-In . SVG Version: 6.00 Build 0)  -->
<svg version="1.1" id="Layer_1" xmlns="http://www.w3.org/2000/svg" xmlns:xlink="http://www.w3.org/1999/xlink" x="0px" y="0px"
	 viewBox="0 0 36 35.998" enable-background="new 0 0 36 35.998" xml:space="preserve">
<rect x="11.96" y="6.789" transform="matrix(-0.7071 -0.7071 0.7071 -0.7071 18.0006 43.4542)" fill="#FFFFFF" width="12.08" height="22.42"/>
<path fill="#FFFFFF" d="M35.72,12.254c-0.232,0.23-0.603,0.23-0.835,0c-0.23-0.23-0.23-0.605,0-0.835l-0.557-0.557
	c-0.232,0.23-0.605,0.23-0.835,0c-0.23-0.23-0.23-0.605,0-0.835l-0.557-0.557c-0.23,0.23-0.605,0.23-0.835,0
	c-0.23-0.23-0.23-0.605,0-0.835l-0.418-0.418c-1.077,1.075-2.822,1.075-3.9,0c-1.077-1.077-1.077-2.824,0-3.9L27.366,3.9
	c-0.23,0.23-0.605,0.23-0.835,0c-0.23-0.232-0.23-0.605,0-0.835l-0.559-0.559c-0.23,0.232-0.603,0.232-0.833,0
	c-0.232-0.23-0.232-0.603,0-0.833l-0.559-0.559c-0.23,0.23-0.603,0.23-0.833,0c-0.232-0.23-0.232-0.603,0-0.833L23.466,0L0,23.464
	l0.28,0.28c0.23-0.23,0.605-0.23,0.835,0c0.23,0.23,0.23,0.605,0,0.835l0.557,0.557c0.23-0.23,0.605-0.23,0.835,0
	c0.23,0.23,0.23,0.605,0,0.835l0.557,0.557c0.23-0.23,0.605-0.23,0.835,0c0.23,0.23,0.23,0.605,0,0.835l0.418,0.418
	c1.077-1.075,2.824-1.075,3.9,0c1.077,1.077,1.077,2.824,0,3.9l0.418,0.418c0.232-0.23,0.607-0.23,0.837,0
	c0.23,0.232,0.23,0.607,0,0.837l0.557,0.557c0.23-0.232,0.605-0.232,0.835,0c0.23,0.23,0.23,0.605,0,0.835l0.557,0.557
	c0.23-0.232,0.605-0.232,0.835,0c0.23,0.23,0.23,0.605,0,0.835l0.278,0.278L36,12.534L35.72,12.254z M31.033,14.621l-16.41,16.41
	c-0.075,0.075-0.175,0.116-0.28,0.116c-0.104,0-0.203-0.041-0.278-0.116l-9.099-9.097c-0.154-0.154-0.154-0.404,0-0.557
	L21.379,4.965c0.148-0.148,0.408-0.148,0.555,0l9.099,9.099C31.187,14.218,31.187,14.468,31.033,14.621z"/>
</svg>
