<?xml version="1.0" encoding="utf-8"?>
<!-- Generator: Adobe Illustrator 19.1.0, SVG Export Plug-In . SVG Version: 6.00 Build 0)  -->
<svg version="1.1" id="Layer_1" xmlns="http://www.w3.org/2000/svg" xmlns:xlink="http://www.w3.org/1999/xlink" x="0px" y="0px"
	 viewBox="0 0 108 69" enable-background="new 0 0 108 69" xml:space="preserve">
<g>
	<rect x="1" y="1" width="106" height="67"/>
	<g opacity="0.5">
		<path fill="#FFFFFF" d="M107,1v67H1V1H107 M108,0h-1H1H0v1v67v1h1h106h1v-1V1V0L108,0z"/>
	</g>
</g>
<g>
	<g>
		<path fill="#FFFFFF" d="M100.606,8.046h-2.051c-0.538,0-0.975-0.436-0.975-0.975V5.02c0-0.538,0.436-0.975,0.975-0.975h2.051
			c0.538,0,0.975,0.436,0.975,0.975v2.051C101.581,7.609,101.144,8.046,100.606,8.046z"/>
	</g>
	<g>
		<path fill="#FFFFFF" d="M92.197,8.046h-2.051c-0.538,0-0.975-0.436-0.975-0.975V5.02c0-0.538,0.436-0.975,0.975-0.975h2.051
			c0.538,0,0.975,0.436,0.975,0.975v2.051C93.172,7.609,92.736,8.046,92.197,8.046z"/>
	</g>
	<g>
		<path fill="#FFFFFF" d="M83.789,8.046h-2.051c-0.538,0-0.975-0.436-0.975-0.975V5.02c0-0.538,0.436-0.975,0.975-0.975h2.051
			c0.538,0,0.975,0.436,0.975,0.975v2.051C84.763,7.609,84.327,8.046,83.789,8.046z"/>
	</g>
	<g>
		<path fill="#FFFFFF" d="M75.38,8.046h-2.051c-0.538,0-0.975-0.436-0.975-0.975V5.02c0-0.538,0.436-0.975,0.975-0.975h2.051
			c0.538,0,0.975,0.436,0.975,0.975v2.051C76.355,7.609,75.918,8.046,75.38,8.046z"/>
	</g>
	<g>
		<path fill="#FFFFFF" d="M66.971,8.046h-2.051c-0.538,0-0.975-0.436-0.975-0.975V5.02c0-0.538,0.436-0.975,0.975-0.975h2.051
			c0.538,0,0.975,0.436,0.975,0.975v2.051C67.946,7.609,67.51,8.046,66.971,8.046z"/>
	</g>
	<g>
		<path fill="#FFFFFF" d="M58.563,8.046h-2.051c-0.538,0-0.975-0.436-0.975-0.975V5.02c0-0.538,0.436-0.975,0.975-0.975h2.051
			c0.538,0,0.975,0.436,0.975,0.975v2.051C59.537,7.609,59.101,8.046,58.563,8.046z"/>
	</g>
	<g>
		<path fill="#FFFFFF" d="M50.154,8.046h-2.051c-0.538,0-0.975-0.436-0.975-0.975V5.02c0-0.538,0.436-0.975,0.975-0.975h2.051
			c0.538,0,0.975,0.436,0.975,0.975v2.051C51.129,7.609,50.692,8.046,50.154,8.046z"/>
	</g>
	<g>
		<path fill="#FFFFFF" d="M41.745,8.046h-2.051c-0.538,0-0.975-0.436-0.975-0.975V5.02c0-0.538,0.436-0.975,0.975-0.975h2.051
			c0.538,0,0.975,0.436,0.975,0.975v2.051C42.72,7.609,42.284,8.046,41.745,8.046z"/>
	</g>
	<g>
		<path fill="#FFFFFF" d="M33.337,8.046h-2.051c-0.538,0-0.975-0.436-0.975-0.975V5.02c0-0.538,0.436-0.975,0.975-0.975h2.051
			c0.538,0,0.975,0.436,0.975,0.975v2.051C34.311,7.609,33.875,8.046,33.337,8.046z"/>
	</g>
	<g>
		<path fill="#FFFFFF" d="M24.928,8.046h-2.051c-0.538,0-0.975-0.436-0.975-0.975V5.02c0-0.538,0.436-0.975,0.975-0.975h2.051
			c0.538,0,0.975,0.436,0.975,0.975v2.051C25.903,7.609,25.466,8.046,24.928,8.046z"/>
	</g>
	<g>
		<path fill="#FFFFFF" d="M16.519,8.046h-2.051c-0.538,0-0.975-0.436-0.975-0.975V5.02c0-0.538,0.436-0.975,0.975-0.975h2.051
			c0.538,0,0.975,0.436,0.975,0.975v2.051C17.494,7.609,17.058,8.046,16.519,8.046z"/>
	</g>
	<g>
		<path fill="#FFFFFF" d="M8.111,8.046H6.06c-0.538,0-0.975-0.436-0.975-0.975V5.02c0-0.538,0.436-0.975,0.975-0.975h2.051
			c0.538,0,0.975,0.436,0.975,0.975v2.051C9.085,7.609,8.649,8.046,8.111,8.046z"/>
	</g>
</g>
<g>
	<g>
		<path fill="#FFFFFF" d="M100.606,65.254h-2.051c-0.538,0-0.975-0.436-0.975-0.975v-2.051c0-0.538,0.436-0.975,0.975-0.975h2.051
			c0.538,0,0.975,0.436,0.975,0.975v2.051C101.581,64.817,101.144,65.254,100.606,65.254z"/>
	</g>
	<g>
		<path fill="#FFFFFF" d="M92.197,65.254h-2.051c-0.538,0-0.975-0.436-0.975-0.975v-2.051c0-0.538,0.436-0.975,0.975-0.975h2.051
			c0.538,0,0.975,0.436,0.975,0.975v2.051C93.172,64.817,92.736,65.254,92.197,65.254z"/>
	</g>
	<g>
		<path fill="#FFFFFF" d="M83.789,65.254h-2.051c-0.538,0-0.975-0.436-0.975-0.975v-2.051c0-0.538,0.436-0.975,0.975-0.975h2.051
			c0.538,0,0.975,0.436,0.975,0.975v2.051C84.763,64.817,84.327,65.254,83.789,65.254z"/>
	</g>
	<g>
		<path fill="#FFFFFF" d="M75.38,65.254h-2.051c-0.538,0-0.975-0.436-0.975-0.975v-2.051c0-0.538,0.436-0.975,0.975-0.975h2.051
			c0.538,0,0.975,0.436,0.975,0.975v2.051C76.355,64.817,75.918,65.254,75.38,65.254z"/>
	</g>
	<g>
		<path fill="#FFFFFF" d="M66.971,65.254h-2.051c-0.538,0-0.975-0.436-0.975-0.975v-2.051c0-0.538,0.436-0.975,0.975-0.975h2.051
			c0.538,0,0.975,0.436,0.975,0.975v2.051C67.946,64.817,67.51,65.254,66.971,65.254z"/>
	</g>
	<g>
		<path fill="#FFFFFF" d="M58.563,65.254h-2.051c-0.538,0-0.975-0.436-0.975-0.975v-2.051c0-0.538,0.436-0.975,0.975-0.975h2.051
			c0.538,0,0.975,0.436,0.975,0.975v2.051C59.537,64.817,59.101,65.254,58.563,65.254z"/>
	</g>
	<g>
		<path fill="#FFFFFF" d="M50.154,65.254h-2.051c-0.538,0-0.975-0.436-0.975-0.975v-2.051c0-0.538,0.436-0.975,0.975-0.975h2.051
			c0.538,0,0.975,0.436,0.975,0.975v2.051C51.129,64.817,50.692,65.254,50.154,65.254z"/>
	</g>
	<g>
		<path fill="#FFFFFF" d="M41.745,65.254h-2.051c-0.538,0-0.975-0.436-0.975-0.975v-2.051c0-0.538,0.436-0.975,0.975-0.975h2.051
			c0.538,0,0.975,0.436,0.975,0.975v2.051C42.72,64.817,42.284,65.254,41.745,65.254z"/>
	</g>
	<g>
		<path fill="#FFFFFF" d="M33.337,65.254h-2.051c-0.538,0-0.975-0.436-0.975-0.975v-2.051c0-0.538,0.436-0.975,0.975-0.975h2.051
			c0.538,0,0.975,0.436,0.975,0.975v2.051C34.311,64.817,33.875,65.254,33.337,65.254z"/>
	</g>
	<g>
		<path fill="#FFFFFF" d="M24.928,65.254h-2.051c-0.538,0-0.975-0.436-0.975-0.975v-2.051c0-0.538,0.436-0.975,0.975-0.975h2.051
			c0.538,0,0.975,0.436,0.975,0.975v2.051C25.903,64.817,25.466,65.254,24.928,65.254z"/>
	</g>
	<g>
		<path fill="#FFFFFF" d="M16.519,65.254h-2.051c-0.538,0-0.975-0.436-0.975-0.975v-2.051c0-0.538,0.436-0.975,0.975-0.975h2.051
			c0.538,0,0.975,0.436,0.975,0.975v2.051C17.494,64.817,17.058,65.254,16.519,65.254z"/>
	</g>
	<g>
		<path fill="#FFFFFF" d="M8.111,65.254H6.06c-0.538,0-0.975-0.436-0.975-0.975v-2.051c0-0.538,0.436-0.975,0.975-0.975h2.051
			c0.538,0,0.975,0.436,0.975,0.975v2.051C9.085,64.817,8.649,65.254,8.111,65.254z"/>
	</g>
</g>
<g>
	<path fill="#FFFFFF" d="M25.774,26.311c1.121-0.19,1.721-0.709,1.801-1.557v-0.159c-0.027-0.021-0.04-0.074-0.04-0.159
		c0.347-0.274,0.614-0.444,0.8-0.508c0.133,0,0.293,0.011,0.48,0.031c0.133,0,0.227,0,0.28,0c0.026,0.297,0.053,0.625,0.08,0.985
		c0.026,0.382,0.053,0.721,0.08,1.018c0.026,0.466,0.173,1.123,0.44,1.97c0.213,0.552,0.561,1.134,1.041,1.748
		c0.533,0.657,0.947,1.219,1.24,1.685c-0.32,0.297-0.574,0.456-0.76,0.477c-0.054,0-0.134,0.011-0.24,0.031c-0.08,0-0.134,0-0.16,0
		c-0.054,0-0.134-0.01-0.24-0.031c-0.107,0-0.174,0-0.2,0c-0.134-0.127-0.2-0.212-0.2-0.254l0.04,0.063
		c-0.027-0.021-0.04-0.043-0.04-0.063l-0.04-0.032c-0.027-0.021-0.04-0.053-0.04-0.096c-0.027-0.063-0.094-0.18-0.2-0.35
		c-0.48-0.635-1.268-1.249-2.361-1.843c-1.014-0.593-1.988-0.996-2.922-1.208c-0.427-0.042-0.947-0.063-1.561-0.063
		c-0.561,0-0.841,0.063-0.841,0.19c0,0.233-0.04,0.478-0.12,0.731v2.828v2.511v7.31v3.909c0,2.31,0.573,3.464,1.721,3.464
		c0,0,0.097,0,0.16,0.031c0.16,0.213,0.24,0.403,0.24,0.572c0,0.17-0.08,0.35-0.24,0.54c-0.027,0-0.174-0.01-0.44-0.031
		c-0.187,0-0.36,0-0.52,0h-0.08c-0.374-0.042-0.654-0.063-0.84-0.063c-0.107,0-0.347,0-0.721,0
		c-0.587-0.021-1.107-0.032-1.561-0.032c-0.107,0-0.347,0-0.72,0c-0.561,0.021-1.067,0.032-1.521,0.032
		c-0.374,0.043-0.64,0.063-0.8,0.063c-0.214,0.021-0.494,0.031-0.84,0.031c-0.107-0.147-0.16-0.328-0.16-0.54
		c0-0.211,0.077-0.488,0.147-0.551c0.071-0.063,0.172-0.052,0.172-0.052h0.2c0.694-0.19,1.121-1.049,1.281-2.574v-6.038v-6.07
		v-6.038v-6.07c-0.16-1.589-0.654-2.446-1.481-2.574h-0.2h-0.04l0.04-0.031h-0.08h-0.12c-0.08-0.233-0.12-0.424-0.12-0.572
		c0-0.296,0.04-0.487,0.12-0.572c0.96,0.063,1.641,0.096,2.041,0.096c0.614,0.021,1.294,0.031,2.041,0.031s1.414-0.01,2.001-0.031
		c0,0.021-0.014,0.031-0.04,0.031h0.08l0.6-0.031c0.961-0.042,2.042-0.074,3.242-0.096c1.201-0.042,2.281-0.073,3.242-0.095
		c1.707-0.085,3.282-0.243,4.723-0.477c0-0.043,0.026-0.064,0.08-0.064c0.026-0.021,0.053-0.031,0.08-0.031
		c0.026,0,0.053-0.011,0.08-0.032c0.08,0,0.16,0,0.24,0c0.026,0,0.053,0.012,0.08,0.032c0.106,0.043,0.186,0.074,0.24,0.096
		c-0.187,0.466-0.374,1.048-0.561,1.747c-0.08,0.213-0.2,0.668-0.36,1.367l-0.12,0.508h-0.32l-0.08-0.031
		c-0.08-0.021-0.147-0.053-0.2-0.096c0-0.042,0.013-0.063,0.04-0.063v-0.095c-0.107-0.869-0.788-1.367-2.042-1.494
		c-1.147-0.084-2.295-0.127-3.442-0.127h1h-0.88h-0.08h-2.642c-1.201,0-1.921,0.043-2.161,0.127c-0.294,0.085-0.44,0.254-0.44,0.509
		v2.701c-0.027,0.678-0.04,1.663-0.04,2.955c0,0.063,0.013,0.17,0.04,0.318c0.026,0.127,0.04,0.223,0.04,0.286
		c0,0.042,0.046,0.068,0.14,0.079c0.093,0.011,0.34,0.016,0.741,0.016C23.826,26.534,24.733,26.461,25.774,26.311z"/>
	<path fill="#FFFFFF" d="M43.984,44.586v2.256v0.35c0,1.017,0.106,1.558,0.32,1.621c0.053,0,0.187,0.021,0.4,0.063
		c0.24,0.021,0.413,0.043,0.52,0.063h4.523l1.601-0.096c0.961-0.063,2.055-0.466,3.282-1.207c1.121-0.699,1.814-1.483,2.081-2.352
		c0-0.275,0.026-0.752,0.08-1.431v-0.096c0.213-0.105,0.414-0.158,0.6-0.158c0.24,0,0.454,0.053,0.641,0.158l-0.04,0.191
		c-0.134,0.953-0.2,1.663-0.2,2.129c0,0.127,0.013,0.275,0.04,0.445c0,0.254,0,0.392,0,0.413s0.04,0.19,0.12,0.508
		c0.053,0.318,0.08,0.488,0.08,0.509l0.04,0.159c0.08,0.36,0.133,0.636,0.16,0.826h0.04c0.08,0.127,0.12,0.339,0.12,0.636
		c0,0.275-0.04,0.456-0.12,0.54H45.865h-0.04h-0.08l-1.361-0.032c-0.054-0.021-0.187-0.031-0.4-0.031
		c-0.694-0.042-1.455-0.063-2.281-0.063c-0.854,0-1.601,0.021-2.241,0.063c-0.134,0-0.467,0.011-1,0.031
		c-0.187,0-0.4,0.012-0.641,0.032l-0.04-0.063c-0.134-0.212-0.2-0.37-0.2-0.477c0-0.085,0.053-0.212,0.16-0.382
		c0.026-0.042,0.053-0.095,0.08-0.158h-0.08c0.026,0,0.053-0.011,0.08-0.032h0.16c0.026-0.021,0.093-0.032,0.2-0.032
		c0.693-0.19,1.121-1.037,1.281-2.542v-0.254v-0.223l-0.04-6.07v-5.72v-6.039v-6.069c-0.107-1.61-0.587-2.479-1.441-2.606h-0.12
		h-0.08h-0.04h0.04c-0.08,0-0.147-0.01-0.2-0.031c-0.107-0.17-0.16-0.36-0.16-0.572c0-0.19,0.053-0.37,0.16-0.54
		c0.693,0.063,1.374,0.095,2.041,0.095c0.187,0,0.374,0,0.561,0c0.266,0.021,0.413,0.032,0.44,0.032
		c0.213,0.021,0.561,0.031,1.041,0.031c0.721,0,1.387-0.01,2.001-0.031c0.053,0,0.213-0.011,0.48-0.032c0.213,0,0.4,0,0.561,0
		c0.186-0.021,0.52-0.053,1-0.095c0.106,0.19,0.16,0.381,0.16,0.571c0,0.191-0.054,0.382-0.16,0.572c-0.027,0-0.04,0.011-0.04,0.032
		c-1.067,0-1.641,0.922-1.721,2.765v5.942v5.943L43.984,44.586z"/>
	<path fill="#FFFFFF" d="M63.435,46.333v-6.038v-6.069v-6.039v-6.038c-0.107-1.631-0.587-2.489-1.441-2.574
		c-0.027-0.021-0.12-0.031-0.28-0.031h-0.04h-0.08c-0.107-0.254-0.16-0.466-0.16-0.636c0-0.148,0.053-0.339,0.16-0.572
		c0.774,0.106,1.454,0.159,2.042,0.159c0.586,0.021,1.254,0.031,2.001,0.031c1.067,0,1.748-0.01,2.042-0.031
		c0.426,0,1.081-0.032,1.961-0.096c0.16,0.191,0.24,0.382,0.24,0.572c0,0.127-0.08,0.318-0.24,0.572v0.031
		c-1.041,0-1.588,0.911-1.641,2.733v6.007v5.911v7.341v3.909c0,2.31,0.547,3.464,1.641,3.464h-0.28h0.24h0.28
		c0.133,0.317,0.2,0.52,0.2,0.604c0,0.106-0.067,0.286-0.2,0.54c-0.561-0.042-0.948-0.073-1.161-0.095
		c-0.427-0.021-0.667-0.032-0.721-0.032c-0.694-0.021-1.468-0.031-2.321-0.031c-0.8,0-1.548,0.011-2.241,0.031v0.032
		c-0.374,0-0.907,0.031-1.601,0.095c-0.16-0.19-0.24-0.381-0.24-0.571c0-0.191,0.053-0.371,0.16-0.541h-0.04h0.04l0.08-0.031h0.16
		l0.08-0.032h0.08C62.901,48.716,63.328,47.858,63.435,46.333z"/>
	<path fill="#FFFFFF" d="M75.643,49.448c0.053,0.127,0.12,0.254,0.2,0.381c0.186,0.382,0.293,0.614,0.32,0.699
		c-1.415-0.297-2.161-1.08-2.241-2.352h-0.08c0-2.563,0.787-4.683,2.361-6.356c1.654-1.716,3.322-3.718,5.003-6.006
		c-0.107-0.191-0.214-0.456-0.32-0.795c0-0.042-0.04-0.18-0.12-0.413c-0.08-0.211-0.134-0.339-0.16-0.381
		c-0.854-2.395-1.588-4.407-2.202-6.039c-0.96-2.669-1.694-4.682-2.201-6.038c-0.667-1.609-1.441-2.468-2.321-2.574
		c-0.027-0.021-0.12-0.031-0.28-0.031h-0.08h-0.08c-0.187-0.19-0.307-0.402-0.36-0.636c-0.027-0.084-0.04-0.275-0.04-0.572
		c0.453,0.043,1.041,0.085,1.761,0.127c0.106,0.021,0.213,0.032,0.32,0.032c0.614,0.021,1.281,0.031,2.001,0.031
		c1.066,0,1.747-0.01,2.041-0.031c0.4,0,1.054-0.032,1.961-0.096c0.213,0.212,0.333,0.403,0.36,0.572v0.096
		c0.026,0.148,0.04,0.307,0.04,0.477c-0.027,0-0.04,0.011-0.04,0.031c-0.64,0-0.96,0.371-0.96,1.112c0,0.488,0.106,1.028,0.32,1.621
		l0.28,0.763c0.641,1.844,1.134,3.221,1.481,4.132c0.586,1.779,1.161,3.39,1.721,4.83c1.387-1.928,2.642-4.078,3.762-6.451
		c1.067-2.182,1.721-4.565,1.961-7.15h0.04c-0.027-0.953-0.227-1.79-0.601-2.511c1.307,0.254,1.975,1.092,2.001,2.511v0.031
		c0,0.021,0,0.043,0,0.063c0,0.276-0.014,0.445-0.04,0.509c-0.32,2.543-1.081,5.011-2.281,7.405
		c-1.415,2.605-2.855,4.915-4.323,6.928l0.04,0.127c0.106,0.382,0.2,0.625,0.28,0.731l2.642,7.341c0.16,0.402,0.6,1.61,1.321,3.623
		c0.747,2.034,0.08,0.286,0.08,0.286c0.827,2.31,1.801,3.464,2.921,3.464h-0.04h0.28l0.16,0.19c0.16,0.19,0.253,0.329,0.28,0.413
		l0.04,0.096c0,0.063,0,0.106,0,0.127c0,0.127-0.027,0.233-0.08,0.317c-0.427-0.042-0.868-0.073-1.321-0.095l-0.641-0.032
		c-0.667-0.021-1.428-0.031-2.281-0.031c-0.854,0-1.601,0.011-2.241,0.031v0.032c-0.32,0-0.84,0.031-1.561,0.095
		c-0.214-0.169-0.347-0.359-0.4-0.571c0-0.043-0.014-0.085-0.04-0.127c0-0.043,0-0.074,0-0.096c0-0.021,0-0.063,0-0.127
		c0.026-0.085,0.04-0.148,0.04-0.191h-0.04h0.04v-0.031h0.16l0.08-0.032h0.08c0.4-0.127,0.601-0.486,0.601-1.08
		c0-0.614-0.08-1.112-0.24-1.494c-0.24-0.635-0.547-1.472-0.92-2.51c-0.374-0.975-0.627-1.653-0.761-2.034
		c-0.134-0.402-0.374-1.102-0.72-2.098c-0.427-1.145-0.734-1.98-0.92-2.511c-1.495,2.119-2.909,3.909-4.243,5.371
		c-1.388,1.568-2.108,3.4-2.161,5.498C75.335,48.642,75.456,49.109,75.643,49.448z"/>
</g>
</svg>
