<?xml version="1.0" encoding="utf-8"?>
<!-- Generator: Adobe Illustrator 19.1.0, SVG Export Plug-In . SVG Version: 6.00 Build 0)  -->
<svg version="1.1" id="Layer_1" xmlns="http://www.w3.org/2000/svg" xmlns:xlink="http://www.w3.org/1999/xlink" x="0px" y="0px"
	 viewBox="0 0 36 36" enable-background="new 0 0 36 36" xml:space="preserve">
<path fill="#FFFFFF" d="M36,30.539v3.533H0v-3.568c0,0,0.536-1.554,2.135-2.117c2.196-0.774,9.091-2.452,11.294-3.164
	c0.218-1.255,0.235-2.413,0.235-2.413s-1.805-1.469-2.063-2.903c-0.1-0.365-0.165-0.797-0.21-1.269
	c-0.257,0.059-0.612-0.074-0.797-0.206c-0.641-0.459-0.47-1.54-0.612-2.204c-0.078-0.369-0.247-0.939-0.079-1.295
	c0.195-0.415,0.84-0.423,1.246-0.195c-0.211-1.178-0.804-1.484-1.235-1.791c-0.246-1.189-0.89-3.024-0.094-6.039
	c0.782-2.958,3.891-3.545,3.891-3.545s-0.352-0.952-0.247-1.433c1.134,0.525,5.766,0.105,7.594,0.769s2.355,2.413,2.355,2.413
	s1.365-0.126,2.531,1.259c1.09,1.294,0.431,5.85,0.105,6.575c-0.387,0.276-0.835,0.722-1.117,1.689
	c0.382-0.108,0.837-0.039,0.996,0.297c0.168,0.356-0.001,0.926-0.079,1.295c-0.141,0.664,0.029,1.745-0.612,2.204
	c-0.176,0.126-0.506,0.253-0.76,0.213c-0.034,0.52-0.07,0.986-0.116,1.332c-0.199,1.481-2.472,3.137-2.472,3.137
	s0.171,1.204,0.644,2.25c1.453,0.362,9.879,2.413,11.32,2.973C35.297,28.895,36,30.539,36,30.539z"/>
</svg>
