<?xml version="1.0" encoding="utf-8"?>
<!-- Generator: Adobe Illustrator 19.1.0, SVG Export Plug-In . SVG Version: 6.00 Build 0)  -->
<svg version="1.1" id="Layer_1" xmlns="http://www.w3.org/2000/svg" xmlns:xlink="http://www.w3.org/1999/xlink" x="0px" y="0px"
	 viewBox="0 0 36 36" enable-background="new 0 0 36 36" xml:space="preserve">
<path fill="#FFFFFF" d="M32.833,25.005L20.8,3.804L1.759,25.406l2.766,4.873l4.653-0.867l1.01,2.2
	c0.134,0.292,0.424,0.474,0.739,0.474c0.038,0,0.076-0.003,0.115-0.009l7.585-1.084c0.427-0.06,0.733-0.445,0.695-0.874
	l-0.222-2.557L32.833,25.005z M11.411,30.384l-0.586-1.278l6.668-1.243l0.141,1.632L11.411,30.384z M14.782,16.415
	c-0.147,0.169-0.352,0.254-0.56,0.254c-0.175,0-0.35-0.06-0.491-0.184c-0.31-0.272-0.341-0.742-0.07-1.052l5.102-5.824
	c0.27-0.31,0.742-0.341,1.05-0.07c0.31,0.272,0.341,0.742,0.07,1.052L14.782,16.415z"/>
<path fill="#FFFFFF" d="M35.859,23.869L23.341,1.817c-0.295-0.52-0.957-0.703-1.477-0.407c-0.521,0.295-0.703,0.957-0.407,1.477
	l12.518,22.052c0.2,0.351,0.566,0.549,0.943,0.549c0.181,0,0.365-0.046,0.534-0.141C35.972,25.051,36.154,24.39,35.859,23.869z"/>
<path fill="#FFFFFF" d="M1.266,25.958c-0.184-0.325-0.598-0.439-0.923-0.255c-0.325,0.185-0.439,0.598-0.255,0.923l2.533,4.462
	c0.125,0.22,0.354,0.343,0.59,0.343c0.113,0,0.228-0.028,0.334-0.088c0.325-0.185,0.439-0.598,0.255-0.923L1.266,25.958z"/>
</svg>
