<?xml version="1.0" encoding="utf-8"?>
<!-- Generator: Adobe Illustrator 19.1.0, SVG Export Plug-In . SVG Version: 6.00 Build 0)  -->
<svg version="1.1" id="Layer_1" xmlns="http://www.w3.org/2000/svg" xmlns:xlink="http://www.w3.org/1999/xlink" x="0px" y="0px"
	 viewBox="0 0 36 36" enable-background="new 0 0 36 36" xml:space="preserve">
<polygon fill="#FFFFFF" points="15.967,12.879 12.7,12.879 8.605,16.973 11.874,16.973 "/>
<polygon fill="#FFFFFF" points="22.646,12.879 19.379,12.879 15.284,16.973 18.553,16.973 "/>
<polygon fill="#FFFFFF" points="29.326,12.879 26.058,12.879 21.963,16.973 25.232,16.973 "/>
<polygon fill="#FFFFFF" points="32.737,12.879 28.642,16.973 34.468,16.973 34.468,12.879 "/>
<polygon fill="#FFFFFF" points="15.436,9.154 10.353,6.384 7.217,7.307 12.302,10.077 "/>
<polygon fill="#FFFFFF" points="21.843,7.267 16.76,4.497 13.624,5.42 18.709,8.19 "/>
<polygon fill="#FFFFFF" points="28.25,5.38 23.167,2.61 20.031,3.533 25.116,6.303 "/>
<polygon fill="#FFFFFF" points="33.184,3.927 32.027,0 26.438,1.646 31.523,4.416 "/>
<path fill="#FFFFFF" d="M3.934,12.879c0-0.113-0.016-0.222-0.047-0.323c-0.14-0.479-0.582-0.829-1.106-0.829
	c-0.111,0-0.219,0.016-0.32,0.045c-0.481,0.138-0.834,0.582-0.834,1.107c0,0.636,0.518,1.154,1.154,1.154
	C3.418,14.033,3.934,13.515,3.934,12.879z"/>
<path fill="#FFFFFF" d="M5.495,12.879c-0.001,1.497-1.214,2.715-2.712,2.715c0,0-0.001,0-0.001,0v1.379h2.412l4.093-4.093H5.495z"/>
<rect x="7.5" y="25.422" display="none" fill="#FFFFFF" stroke="#FFFFFF" stroke-width="0.5" stroke-miterlimit="10" width="22" height="9"/>
<path fill="#FFFFFF" d="M2.03,10.272c0.238-0.068,0.492-0.106,0.753-0.106c1.232,0,2.271,0.823,2.601,1.948l3.645-1.074L3.946,8.271
	L1.631,8.953l0.389,1.323C2.024,10.275,2.027,10.273,2.03,10.272z"/>
<path fill="#FFFFFF" d="M6.808,36h23.713c1.174,0,2.127-0.952,2.127-2.127V19.43H4.681v14.443C4.681,35.048,5.634,36,6.808,36z"/>
</svg>
